HIERARCHY
ROOT joint_0
{
	OFFSET 0.000000 0.000000 0.000000
	CHANNELS 6 Xposition Yposition Zposition Zrotation Yrotation Xrotation 
	JOINT joint_1
	{
		OFFSET 7.566162 2.250183 114.799927
		CHANNELS 3 Zrotation Yrotation Xrotation
		JOINT joint_2
		{
			OFFSET -5.201660 -0.414001 104.936035
			CHANNELS 3 Zrotation Yrotation Xrotation
			JOINT joint_3
			{
				OFFSET -6.923584 -0.419739 104.718018
				CHANNELS 3 Zrotation Yrotation Xrotation
				JOINT joint_4
				{
					OFFSET 3.108887 2.881104 149.449951
					CHANNELS 3 Zrotation Yrotation Xrotation
					JOINT joint_5
					{
						OFFSET 19.988770 5.920349 90.786987
						CHANNELS 3 Zrotation Yrotation Xrotation
						End Site
						{
							OFFSET 0.000000 0.000000 0.000000
						}
					}
				}
				JOINT joint_6
				{
					OFFSET 9.283936 -30.015930 84.410034
					CHANNELS 3 Zrotation Yrotation Xrotation
					JOINT joint_7
					{
						OFFSET 47.243164 -155.716736 -23.241089
						CHANNELS 3 Zrotation Yrotation Xrotation
						JOINT joint_8
						{
							OFFSET 31.323730 -15.356873 -268.798950
							CHANNELS 3 Zrotation Yrotation Xrotation
							JOINT joint_9
							{
								OFFSET 28.122314 -2.114624 -262.450012
								CHANNELS 3 Zrotation Yrotation Xrotation
								End Site
								{
									OFFSET 0.000000 0.000000 0.000000
								}
							}
						}
					}
				}
				JOINT joint_10
				{
					OFFSET -5.580566 33.311218 83.498047
					CHANNELS 3 Zrotation Yrotation Xrotation
					JOINT joint_11
					{
						OFFSET -22.773438 160.515381 -27.138062
						CHANNELS 3 Zrotation Yrotation Xrotation
						JOINT joint_12
						{
							OFFSET 27.004395 30.848877 -267.937988
							CHANNELS 3 Zrotation Yrotation Xrotation
							JOINT joint_13
							{
								OFFSET 32.625000 14.824585 -261.518005
								CHANNELS 3 Zrotation Yrotation Xrotation
								End Site
								{
									OFFSET 0.000000 0.000000 0.000000
								}
							}
						}
					}
				}
			}
		}
	}
	JOINT joint_14
	{
		OFFSET 20.623535 -83.447632 -106.174011
		CHANNELS 3 Zrotation Yrotation Xrotation
		JOINT joint_15
		{
			OFFSET 0.661865 -23.563843 -459.915039
			CHANNELS 3 Zrotation Yrotation Xrotation
			JOINT joint_16
			{
				OFFSET -23.461670 -28.727966 -444.760971
				CHANNELS 3 Zrotation Yrotation Xrotation
				JOINT joint_17
				{
					OFFSET 178.992920 54.047363 -80.113001
					CHANNELS 3 Zrotation Yrotation Xrotation
					End Site
					{
						OFFSET 0.000000 0.000000 0.000000
					}
				}
			}
		}
	}
	JOINT joint_18
	{
		OFFSET -19.571533 84.686279 -105.380005
		CHANNELS 3 Zrotation Yrotation Xrotation
		JOINT joint_19
		{
			OFFSET -22.949951 3.639404 -459.933044
			CHANNELS 3 Zrotation Yrotation Xrotation
			JOINT joint_20
			{
				OFFSET -33.690674 4.092651 -445.010971
				CHANNELS 3 Zrotation Yrotation Xrotation
				JOINT joint_21
				{
					OFFSET 187.419678 18.953857 -76.759001
					CHANNELS 3 Zrotation Yrotation Xrotation
					End Site
					{
						OFFSET 0.000000 0.000000 0.000000
					}
				}
			}
		}
	}
}
MOTION
Frames: 12
Frame Time: 0.016667
-3161.001709 954.091858 1110.129028 -14.433996 -0.110122 0.417306 0.736655 0.948879 0.888354 0.677252 -0.133889 -0.149049 0.692191 0.197167 0.058233 0.019227 0.066459 -0.107790 0.000000 0.000000 0.000000 5.044201 4.056005 0.931760 -0.139865 4.082576 -1.530975 0.231222 0.939752 2.151239 0.000000 0.000000 0.000000 -0.244916 2.291210 -3.913619 0.162265 2.703554 -1.615791 0.340526 1.093940 1.984349 0.000000 0.000000 0.000000 -1.229167 1.939285 -2.656718 -1.148164 -0.967673 0.133224 -1.077023 -2.350200 0.230468 0.000000 0.000000 0.000000 0.814063 -0.089920 2.312152 0.888622 0.489401 0.438695 0.884283 -0.189520 0.381513 0.000000 0.000000 0.000000 
-3159.479492 954.469666 1110.099976 -14.273973 0.237377 0.327433 0.852468 1.247044 0.795622 0.793079 -0.141960 -0.123156 0.804486 0.235841 0.029300 0.034461 -0.656199 0.046168 0.000000 0.000000 0.000000 5.165781 4.481555 0.813025 -0.162554 4.515122 -1.683393 0.337987 -0.129753 2.899182 0.000000 0.000000 0.000000 -0.202791 2.324304 -3.960598 0.195834 2.758096 -1.540189 0.288582 0.547562 1.925910 0.000000 0.000000 0.000000 -1.277057 1.680352 -2.603873 -1.201284 -1.005295 0.155078 -1.128989 -2.390907 0.219765 0.000000 0.000000 0.000000 0.774933 -0.390194 2.385436 0.853808 0.448050 0.405729 0.848156 -0.234861 0.371333 0.000000 0.000000 0.000000 
-3157.310059 954.662109 1109.869995 -13.993246 1.042773 0.151843 0.836155 1.063957 0.638594 0.784545 -0.168389 -0.097346 0.793077 0.268186 0.012088 0.021099 -1.569652 0.403969 0.000000 0.000000 0.000000 5.444716 4.688540 0.774745 -0.140029 4.731742 -1.811371 0.398191 -0.084803 3.415882 0.000000 0.000000 0.000000 -0.130091 2.597139 -3.781151 0.216353 2.957614 -1.841985 0.259886 0.038235 1.989539 0.000000 0.000000 0.000000 -1.363457 1.015164 -2.425609 -1.299283 -1.127196 0.156293 -1.234425 -2.405335 0.177464 0.000000 0.000000 0.000000 0.706441 -1.131266 2.585406 0.796205 0.321651 0.318644 0.787755 -0.250403 0.348207 0.000000 0.000000 0.000000 
-3154.546143 954.731079 1109.532959 -13.636319 2.114330 -0.070670 0.748768 0.637185 0.449428 0.711535 -0.190727 -0.074726 0.717620 0.276300 0.002458 -0.002732 -2.594651 0.871880 0.000000 0.000000 0.000000 5.808551 4.790499 0.756374 -0.093250 4.854809 -1.916125 0.438540 0.527603 3.844663 0.000000 0.000000 0.000000 -0.039263 2.998483 -3.510848 0.234144 3.246590 -2.292961 0.241173 -0.443274 2.092639 0.000000 0.000000 0.000000 -1.477468 0.135595 -2.179761 -1.429321 -1.311558 0.153234 -1.377828 -2.403882 0.113685 0.000000 0.000000 0.000000 0.622402 -2.108287 2.856414 0.725844 0.129790 0.203741 0.713830 -0.244511 0.317347 0.000000 0.000000 0.000000 
-3151.135498 954.854614 1109.232056 -13.299707 3.078214 -0.273129 0.678032 0.308685 0.294229 0.654225 -0.187376 -0.052759 0.657779 0.254244 -0.007050 -0.014925 -3.393549 1.221989 0.000000 0.000000 0.000000 6.113962 4.900323 0.755577 -0.052036 4.970108 -2.027278 0.473069 1.027273 4.203965 0.000000 0.000000 0.000000 0.016558 3.312578 -3.381689 0.258881 3.515228 -2.468350 0.216698 -0.723845 2.043980 0.000000 0.000000 0.000000 -1.597784 -0.575901 -1.988229 -1.560755 -1.522678 0.182609 -1.522357 -2.427070 0.057034 0.000000 0.000000 0.000000 0.561058 -2.900450 3.075361 0.674618 -0.108428 0.135917 0.661430 -0.271060 0.298550 0.000000 0.000000 0.000000 
-3147.134033 955.095642 1109.073975 -13.030872 3.757889 -0.431306 0.661434 0.189802 0.208386 0.645239 -0.136522 -0.024207 0.645589 0.192420 -0.021852 -0.009358 -3.764357 1.326527 0.000000 0.000000 0.000000 6.315439 5.049965 0.803420 -0.026945 5.088528 -2.165151 0.491394 1.278284 4.398908 0.000000 0.000000 0.000000 -0.033350 3.436377 -3.516940 0.288883 3.721397 -2.160156 0.186710 -0.568210 1.743563 0.000000 0.000000 0.000000 -1.721522 -0.934253 -1.909433 -1.682443 -1.764822 0.277375 -1.655382 -2.482387 0.015315 0.000000 0.000000 0.000000 0.552782 -3.299235 3.188294 0.671318 -0.410018 0.157498 0.661146 -0.360955 0.307482 0.000000 0.000000 0.000000 
-3142.484863 955.391235 1108.952026 -12.781650 4.334478 -0.574585 0.665795 0.156091 0.153743 0.654421 -0.065988 0.009577 0.651132 0.119801 -0.040977 0.001837 -3.911903 1.314126 0.000000 0.000000 0.000000 6.463137 5.202921 0.869536 -0.008849 5.194992 -2.309784 0.501912 1.424116 4.519430 0.000000 0.000000 0.000000 -0.139113 3.467925 -3.779205 0.326060 3.903137 -1.592605 0.151196 -0.210762 1.296596 0.000000 0.000000 0.000000 -1.852100 -1.130116 -1.881621 -1.803405 -2.032983 0.405551 -1.787795 -2.562660 -0.018415 0.000000 0.000000 0.000000 0.567361 -3.518062 3.252108 0.689032 -0.758191 0.225451 0.683503 -0.487712 0.329386 0.000000 0.000000 0.000000 
-3136.962646 955.735107 1108.687012 -12.502650 4.972867 -0.720161 0.675733 0.188194 0.086292 0.667332 -0.028043 0.037165 0.660929 0.092189 -0.059962 0.009199 -4.111570 1.331696 0.000000 0.000000 0.000000 6.558502 5.368624 0.857155 -0.000033 5.338399 -2.422404 0.539891 1.196948 4.838986 0.000000 0.000000 0.000000 -0.180991 3.495350 -3.992927 0.382153 4.068827 -1.006101 0.091088 -0.185817 0.820806 0.000000 0.000000 0.000000 -1.979748 -1.347905 -1.846455 -1.922327 -2.275958 0.508228 -1.915756 -2.694333 -0.034350 0.000000 0.000000 0.000000 0.553249 -3.771499 3.309773 0.679196 -1.080373 0.290176 0.677312 -0.633436 0.341488 0.000000 0.000000 0.000000 
-3130.735596 956.113708 1108.224976 -12.172447 5.725402 -0.868279 0.689254 0.337284 -0.017362 0.679630 -0.047730 0.048551 0.671424 0.128185 -0.072876 0.008533 -4.490039 1.441939 0.000000 0.000000 0.000000 6.547044 5.546819 0.704639 0.002451 5.549953 -2.429909 0.611820 0.406459 5.394265 0.000000 0.000000 0.000000 -0.105482 3.513763 -4.092154 0.456609 4.178570 -0.501530 0.012185 -0.645097 0.429831 0.000000 0.000000 0.000000 -2.099401 -1.657472 -1.775406 -2.036856 -2.476216 0.546910 -2.036281 -2.894120 -0.026053 0.000000 0.000000 0.000000 0.485428 -4.144607 3.367152 0.616444 -1.343714 0.354266 0.618302 -0.798622 0.333919 0.000000 0.000000 0.000000 
-3123.635742 956.539490 1107.619995 -11.812835 6.531219 -1.013528 0.710961 0.570641 -0.130603 0.694707 -0.092159 0.048423 0.685636 0.184559 -0.078901 0.003648 -4.922332 1.580140 0.000000 0.000000 0.000000 6.464779 5.743301 0.470845 -0.004023 5.803599 -2.400289 0.707502 -0.765850 6.124825 0.000000 0.000000 0.000000 0.040217 3.528610 -4.144363 0.555412 4.272365 0.025522 -0.087996 -1.429389 -0.008447 0.000000 0.000000 0.000000 -2.216888 -1.978123 -1.699357 -2.149143 -2.653924 0.559379 -2.152266 -3.137857 -0.002061 0.000000 0.000000 0.000000 0.388415 -4.540500 3.416864 0.525602 -1.583519 0.416894 0.531009 -0.974687 0.315864 0.000000 0.000000 0.000000 
-3114.933838 957.047241 1106.859985 -11.438938 7.385025 -1.160620 0.734512 0.744102 -0.228135 0.711825 -0.124255 0.052934 0.701278 0.221492 -0.086834 -0.003677 -5.307698 1.706551 0.000000 0.000000 0.000000 6.445673 5.979337 0.240495 -0.034517 6.064861 -2.502792 0.833029 -2.043638 7.152749 0.000000 0.000000 0.000000 0.218836 3.640555 -4.186040 0.704084 4.480792 0.667261 -0.238034 -2.598798 -0.752817 0.000000 0.000000 0.000000 -2.340217 -2.265862 -1.651335 -2.265361 -2.818093 0.601697 -2.269499 -3.384395 0.022796 0.000000 0.000000 0.000000 0.283669 -4.901261 3.478726 0.432722 -1.827261 0.424937 0.437444 -1.121881 0.292323 0.000000 0.000000 0.000000 
-3104.334473 957.679810 1105.802979 -11.057937 8.328566 -1.327900 0.752087 0.769137 -0.287380 0.728021 -0.131025 0.064559 0.715382 0.228036 -0.097259 -0.014893 -5.604356 1.819360 0.000000 0.000000 0.000000 6.659110 6.252804 0.077011 -0.096802 6.333221 -2.756786 0.966082 -3.204157 8.392098 0.000000 0.000000 0.000000 0.425389 3.853091 -4.306365 0.902765 4.831946 1.496943 -0.427226 -3.932780 -1.883458 0.000000 0.000000 0.000000 -2.474206 -2.518380 -1.635073 -2.386462 -3.030031 0.724733 -2.394212 -3.593211 0.033759 0.000000 0.000000 0.000000 0.180848 -5.231174 3.580257 0.350681 -2.126419 0.346143 0.347879 -1.202541 0.263702 0.000000 0.000000 0.000000 
